<?xml version="1.0" encoding="utf-8"?>
<!-- Generator: Adobe Illustrator 16.0.0, SVG Export Plug-In . SVG Version: 6.00 Build 0)  -->
<!DOCTYPE svg PUBLIC "-//W3C//DTD SVG 1.1//EN" "http://www.w3.org/Graphics/SVG/1.1/DTD/svg11.dtd">
<svg version="1.1" id="Layer_1" xmlns="http://www.w3.org/2000/svg" xmlns:xlink="http://www.w3.org/1999/xlink" x="0px" y="0px"
	 width="76px" height="90px" viewBox="12 5 76 90" enable-background="new 12 5 76 90" xml:space="preserve">
<g id="Layer_x0020_1">
	<path d="M70,5c5,0,8,3,8,8c0,4-3,7-8,7c-4,0-7-3-7-7C63,8,66,5,70,5z M42,33h-2v2l0,0h2V33z M40,42v49c0,2-2,4-4,4c-3,0-4-2-4-4V58
		h-2h-2v33c0,2-1,4-4,4c-2,0-4-2-4-4V33h-2v21c0,2-1,4-3,4c-1,0-3-2-3-4V31c0-5,4-8,9-8c6,0,7,0,9,0s3,0,9,0c5,0,9,3,9,8v4h2l6-9
		c2-3,5-3,7-3c5,0,9,0,16,0c5,0,9,3,9,8v23c0,2-2,4-3,4c-2,0-3-2-3-4V33h-2v58c0,2-2,4-4,4c-3,0-4-2-4-4V58h-4v33c0,2-1,4-4,4
		c-2,0-4-2-4-4V67v-9V33h-1l-5,7c0,1-2,2-3,2h-3v12c0,2-1,4-3,4s-3-2-3-4V42H40L40,42z M30,5c5,0,8,3,8,8c0,4-3,7-8,7c-4,0-7-3-7-7
		C23,8,26,5,30,5z"/>
</g>
</svg>
