<svg xmlns="http://www.w3.org/2000/svg" xmlns:xlink="http://www.w3.org/1999/xlink" xml:space="preserve" width="100px" height="100px" version="1.0" style="shape-rendering:geometricPrecision; text-rendering:geometricPrecision; image-rendering:optimizeQuality; fill-rule:evenodd; clip-rule:evenodd" viewBox="0 0 100 100">
 <defs>
  <style type="text/css">
   
    .fil0 {fill:black}
   
  </style>
 </defs>
 <g id="Layer_x0020_1">
  <metadata id="CorelCorpID_0Corel-Layer"/>
  <path class="fil0" d="M70 5c5,0 8,3 8,8 0,4 -3,7 -8,7 -4,0 -7,-3 -7,-7 0,-5 3,-8 7,-8zm-28 28l-2 0 0 2 0 0 2 0 0 -2zm-2 9l0 49c0,2 -2,4 -4,4 -3,0 -4,-2 -4,-4l0 -33 -2 0 -2 0 0 33c0,2 -1,4 -4,4 -2,0 -4,-2 -4,-4l0 -58 -2 0 0 21c0,2 -1,4 -3,4 -1,0 -3,-2 -3,-4l0 -23c0,-5 4,-8 9,-8 6,0 7,0 9,0 2,0 3,0 9,0 5,0 9,3 9,8l0 4 2 0 6 -9c2,-3 5,-3 7,-3 5,0 9,0 16,0 5,0 9,3 9,8l0 23c0,2 -2,4 -3,4 -2,0 -3,-2 -3,-4l0 -21 -2 0 0 58c0,2 -2,4 -4,4 -3,0 -4,-2 -4,-4l0 -33 -4 0 0 33c0,2 -1,4 -4,4 -2,0 -4,-2 -4,-4l0 -24 0 -9 0 -25 -1 0 -5 7c0,1 -2,2 -3,2l-3 0 0 12c0,2 -1,4 -3,4 -2,0 -3,-2 -3,-4l0 -12 -2 0 0 0zm-10 -37c5,0 8,3 8,8 0,4 -3,7 -8,7 -4,0 -7,-3 -7,-7 0,-5 3,-8 7,-8z"/>
 </g>
</svg>