<svg xmlns="http://www.w3.org/2000/svg" xmlns:xlink="http://www.w3.org/1999/xlink" version="1.1" id="Your_Icon" x="0px" y="0px" width="100px" height="100px" viewBox="0 0 100 100" enable-background="new 0 0 100 100" xml:space="preserve">
<circle cx="49.317" cy="25.252" r="4.657"/>
<polygon points="45.381,64.37 41.318,80.81 46.14,82.139 51.418,65.586 53.469,63.535 "/>
<polygon points="56.848,63.193 64.174,61.827 68.389,79.443 64.403,82.405 "/>
<path d="M47.85,33.959c1.181-2.135,3.619-4.81,7.82-2.886c4.202,1.924,12.302,6.986,12.302,6.986L68.2,52.525l-3.38-0.608  l-1.062-11.124l-2.979-0.638c0,0,1.474,4.118,1.599,4.951c-2.328,0.016-10.452,0.574-12.481,0.828  c-0.073-0.508-0.338-3.331-0.338-3.331s-0.824,2.581-1.02,3.383c-1.281,0.132-8.562,1.048-10.687,1.49  c1.069-0.706,7.302-4.822,7.302-4.822S46.862,35.744,47.85,33.959z"/>
<path d="M68.047,44.703c-6.273,0-13.012,0.376-20.03,1.12C23.354,48.438,4.469,54.586,5.023,59.819  c0.385,3.628,9.708,5.794,24.939,5.794c6.273,0,13.013-0.378,20.032-1.121c24.663-2.614,43.548-8.761,42.992-13.995  C92.604,46.869,83.28,44.703,68.047,44.703z M48.081,46.428c6.997-0.741,13.714-1.117,19.966-1.117  c13.934,0,23.29,1.92,24.241,4.919c-10.297,0.163-71.611,6.229-86.652,9.188C6.057,54.737,25.122,48.861,48.081,46.428z   M49.932,63.889c-6.999,0.741-13.717,1.118-19.969,1.118c-14.034,0-23.422-1.95-24.257-4.984c15.939-3.159,77.69-9.047,86.671-9.187  C92.125,55.526,72.994,61.444,49.932,63.889z"/>
</svg>